PathFileType	4	(X/Y/Z)	/Users/itak/Documents/Research/Walk-IL/dataset/trc/00254_00009.trc
DataRate	CameraRate	NumFrames	NumMarkers	Units	OrigDataRate	OrigDataStartFrame	OrigNumFrames
100.000000	100.000000	4	53	mm	100.000000	411	549
Frame#	Time	RPSI			LPSI			L3			STRN			T10			C7			CLAV			RBAK			LBAK			LSHO			LUPA			LAEL			LAOL			LWTS			LWPS			LFRA			LIFD			LHPS			LHTS			RSHO			RUPA			RAEL			RAOL			RWTS			RWPS			RFRA			RIFD			RHTS			RHPS			RBHD			LFHD			RFHD			LBHD			LHIP			RHIP			RASI			LASI			LKNE			LTHI			LANK			LTIP			LTOE			LMT1			LMT5			LHEE			RKNE			RTHI			RANK			RTIP			RTOE			RMT1			RMT5			RHEE			
		X1	Y1	Z1	X2	Y2	Z2	X3	Y3	Z3	X4	Y4	Z4	X5	Y5	Z5	X6	Y6	Z6	X7	Y7	Z7	X8	Y8	Z8	X9	Y9	Z9	X10	Y10	Z10	X11	Y11	Z11	X12	Y12	Z12	X13	Y13	Z13	X14	Y14	Z14	X15	Y15	Z15	X16	Y16	Z16	X17	Y17	Z17	X18	Y18	Z18	X19	Y19	Z19	X20	Y20	Z20	X21	Y21	Z21	X22	Y22	Z22	X23	Y23	Z23	X24	Y24	Z24	X25	Y25	Z25	X26	Y26	Z26	X27	Y27	Z27	X28	Y28	Z28	X29	Y29	Z29	X30	Y30	Z30	X31	Y31	Z31	X32	Y32	Z32	X33	Y33	Z33	X34	Y34	Z34	X35	Y35	Z35	X36	Y36	Z36	X37	Y37	Z37	X38	Y38	Z38	X39	Y39	Z39	X40	Y40	Z40	X41	Y41	Z41	X42	Y42	Z42	X43	Y43	Z43	X44	Y44	Z44	X45	Y45	Z45	X46	Y46	Z46	X47	Y47	Z47	X48	Y48	Z48	X49	Y49	Z49	X50	Y50	Z50	X51	Y51	Z51	X52	Y52	Z52	X53	Y53	Z53	

412	4.11	-149.2017364501953	1008.976135253906	344.7909240722656	-31.73620223999023	1020.972290039062	323.9285888671875	-73.29283142089844	1102.770629882812	322.5519409179688	-33.0037956237793	1289.233032226562	566.0389404296875	-75.28635406494141	1229.9921875	319.2114562988281	-59.48067474365234	1492.075439453125	378.2803344726562	-38.40773773193359	1406.640380859375	540.9393310546875	-140.2926483154297	1352.027709960938	314.5285949707031	47.8059196472168	1454.014526367188	340.5086975097656	112.2180252075195	1452.279663085938	422.2856750488281	189.3497772216797	1336.54443359375	391.9340515136719	233.0024566650391	1133.119995117188	434.9844970703125	189.7115478515625	1101.864624023438	365.783935546875	163.8878326416016	939.8264770507812	587.6329345703125	244.5826721191406	914.7315063476562	574.0294189453125	244.0145874023438	1036.661010742188	487.2830505371094	162.8575744628906	757.2867431640625	653.1304931640625	234.5860137939453	836.4014892578125	618.1331176757812	179.0284729003906	855.021484375	652.631103515625	-220.415771484375	1453.689453125	457.3667907714844	-289.1423034667969	1389.8916015625	444.4971618652344	-335.5344543457031	1111.26904296875	414.3384094238281	-247.6849822998047	1103.38720703125	377.8314208984375	-288.8515319824219	900.5626831054688	554.1328735351562	-355.4527282714844	884.6312255859375	502.6729431152344	-348.4359741210938	1043.180541992188	440.9011840820312	-282.0399169921875	706.3777465820312	573.3094482421875	-301.0958251953125	780.0950927734375	594.7440795898438	-353.255859375	778.2072143554688	544.2890625	-99.03399658203125	1652.914794921875	431.8139953613281	16.59187316894531	1685.503540039062	624.9357299804688	-82.30360412597656	1682.576782226562	635.850341796875	37.75632095336914	1659.806274414062	463.4218444824219	129.7650146484375	970.034423828125	393.7423095703125	-229.07421875	973.150634765625	464.1345825195312	-175.6636047363281	1023.8525390625	548.479736328125	101.268798828125	1011.618774414062	498.8482055664062	69.15200042724609	490.1834716796875	389.4839172363281	105.1154479980469	631.9462890625	400.3160400390625	-3.627078533172607	36.11580657958984	227.05078125	42.77180099487305	276.045166015625	300.52099609375	-2.191575050354004	39.02026748657227	449.7727661132812	-60.63609313964844	38.05178451538086	394.072998046875	47.96218109130859	32.01375198364258	344.43115234375	-69.08937072753906	49.90628051757812	180.8007965087891	-154.1144866943359	520.4048461914062	646.1837158203125	-216.3628540039062	771.6183471679688	572.36865234375	-104.1535720825195	31.86383819580078	663.6398315429688	-128.8466644287109	403.8706665039062	679.7000732421875	-48.5670280456543	63.06626510620117	866.8089599609375	-8.068593978881836	52.18007278442383	809.4042358398438	-120.6861419677734	40.85451889038086	774.6672973632812	-48.71488189697266	27.7296199798584	599.1236572265625	
413	4.12	-148.4080505371094	1008.927917480469	351.9210205078125	-30.7555980682373	1020.522583007812	331.0712280273438	-72.38908386230469	1102.131591796875	329.6806335449219	-32.61043548583984	1289.31005859375	572.5690307617188	-74.5693359375	1229.310668945312	325.9439697265625	-59.41699981689453	1491.654541015625	384.2532348632812	-38.27401733398438	1406.598022460938	547.1263427734375	-139.6949462890625	1351.119873046875	320.7173767089844	47.9058952331543	1453.667236328125	346.6264953613281	112.5566253662109	1452.224365234375	428.3573303222656	189.3424530029297	1336.121459960938	397.591064453125	232.0901947021484	1132.173461914062	439.1919555664062	188.2329254150391	1101.812866210938	369.8712463378906	163.6081695556641	936.4561157226562	588.9835205078125	244.2666015625	911.556396484375	574.561767578125	243.2692413330078	1034.89404296875	489.9338989257812	162.9796142578125	752.8494873046875	651.5146484375	234.5249938964844	832.5169677734375	617.4271240234375	179.0682830810547	850.5721435546875	652.5015869140625	-220.3851928710938	1452.834716796875	463.07177734375	-288.882080078125	1388.83837890625	450.1896057128906	-334.6480712890625	1110.131713867188	420.1685485839844	-246.601806640625	1102.32666015625	384.0521545410156	-288.5284423828125	899.22705078125	559.87353515625	-354.8619689941406	883.332275390625	507.987548828125	-347.3890075683594	1042.002319335938	446.7408752441406	-281.7822265625	705.0565185546875	578.8411254882812	-300.9570617675781	778.7651977539062	600.3055419921875	-352.8125610351562	776.827392578125	549.4825439453125	-99.44939422607422	1652.70947265625	437.6346740722656	16.05819320678711	1685.649047851562	630.7791748046875	-82.89998626708984	1682.54638671875	641.5614624023438	37.31987762451172	1659.8994140625	469.2925415039062	130.6961822509766	969.0740356445312	400.8785705566406	-227.7593536376953	973.0860595703125	471.2555236816406	-174.4218139648438	1023.640258789062	555.6597290039062	102.3173751831055	1011.148681640625	506.2093200683594	69.64311981201172	489.3365478515625	396.3725891113281	105.5959930419922	631.0692138671875	407.4119262695312	-3.782977819442749	37.2861328125	227.4062957763672	42.94226837158203	276.26513671875	304.4652709960938	-2.181408405303955	38.93000411987305	449.9407043457031	-60.60043334960938	38.11050796508789	394.2448120117188	47.83677673339844	32.0706672668457	344.5176391601562	-69.14527893066406	51.88731002807617	181.1666412353516	-152.3539123535156	520.3527221679688	652.8455810546875	-214.6510009765625	771.7583618164062	579.9772338867188	-103.8070068359375	32.40228652954102	664.4208984375	-126.9707412719727	403.3491821289062	685.3983764648438	-47.58179092407227	58.05743408203125	869.0910034179688	-7.30407190322876	48.66751098632812	810.9249877929688	-120.1637115478516	39.87385940551758	775.6748657226562	-48.50638580322266	28.69633293151855	599.7332763671875	
414	4.13	-147.5196838378906	1009.161804199219	358.9363403320312	-29.69708824157715	1020.307373046875	338.1519165039062	-71.396728515625	1101.763916015625	336.7682495117188	-32.21620941162109	1289.613037109375	579.090576171875	-73.83437347412109	1228.912841796875	332.6307983398438	-59.36884307861328	1491.4833984375	390.2621459960938	-38.1428337097168	1406.786987304688	553.3243408203125	-139.1260070800781	1350.490478515625	326.9175109863281	47.97455596923828	1453.594604492188	352.766845703125	112.8998184204102	1452.46923828125	434.4226379394531	189.2685546875	1335.964965820312	403.1405029296875	231.0223693847656	1131.4853515625	443.1722106933594	186.4439544677734	1102.05126953125	373.8222961425781	163.4587249755859	933.2503051757812	590.0387573242188	244.0229034423828	908.5709228515625	574.59521484375	242.4469757080078	1033.364135742188	492.2333679199219	163.3707427978516	748.593994140625	649.447509765625	234.6638946533203	828.8328247070312	616.1676025390625	179.3793640136719	846.2733764648438	651.94873046875	-220.3481750488281	1452.209228515625	468.82421875	-288.609130859375	1387.997192382812	455.9555358886719	-333.7075500488281	1109.199340820312	426.1536254882812	-245.47509765625	1101.470336914062	390.4068298339844	-288.2442626953125	898.054443359375	565.6898193359375	-354.2955322265625	882.2178955078125	513.3413696289062	-346.312255859375	1041.03759765625	452.7117614746094	-281.6360168457031	703.8475952148438	584.298828125	-300.90234375	777.5404052734375	605.8150634765625	-352.4469604492188	775.5995483398438	554.6455078125	-99.91937255859375	1652.7001953125	443.4853820800781	15.52044296264648	1686.05615234375	636.6051635742188	-83.50077056884766	1682.780517578125	647.2731323242188	36.83965682983398	1660.2099609375	475.1465148925781	131.6362457275391	968.2918701171875	408.0753173828125	-226.5877990722656	973.4340209960938	478.2442016601562	-173.2746429443359	1023.800964355469	562.7066650390625	103.5085372924805	1011.032165527344	513.8961791992188	70.13135528564453	488.6328430175781	403.5709228515625	106.0181884765625	630.3505859375	414.7438659667969	-3.91372013092041	38.78689193725586	227.846923828125	43.1068000793457	276.7127380371094	308.591796875	-2.150432348251343	38.82742691040039	450.1435241699219	-60.54022216796875	38.23437118530273	394.4758605957031	47.69852066040039	32.15769195556641	344.6429443359375	-69.16122436523438	54.27797317504883	181.6395568847656	-150.7864990234375	520.528076171875	659.4063110351562	-213.2366943359375	772.2606811523438	587.4620361328125	-103.4873733520508	33.01162719726562	665.0687866210938	-125.264404296875	403.0905151367188	690.8939819335938	-46.74099349975586	53.80466461181641	871.0354614257812	-6.64182186126709	45.80010604858398	812.2090454101562	-119.7307586669922	39.30655288696289	776.4463500976562	-48.35916137695312	29.57550621032715	600.2440185546875	
415	4.14	-146.5375518798828	1009.645874023438	365.8432006835938	-28.57441902160645	1020.334899902344	345.1636047363281	-70.32196807861328	1101.67919921875	343.7786865234375	-31.82412910461426	1290.1396484375	585.5887451171875	-73.07112121582031	1228.807250976562	339.2585144042969	-59.32939529418945	1491.566772460938	396.298828125	-38.01406097412109	1407.209594726562	559.5245361328125	-138.5776519775391	1350.147094726562	333.1161193847656	48.03076934814453	1453.815795898438	358.9326782226562	113.2434692382812	1453.02392578125	440.4975280761719	189.1462554931641	1336.104858398438	408.6089172363281	229.8131408691406	1131.082885742188	446.9158020019531	184.371337890625	1102.607055664062	377.6386413574219	163.4486694335938	930.2481079101562	590.80078125	243.8520050048828	905.8226318359375	574.1286010742188	241.5499420166016	1032.107666015625	494.1730346679688	164.0079956054688	744.5618286132812	646.9074096679688	234.9926300048828	825.39501953125	614.3440551757812	179.9685668945312	842.164794921875	650.9654541015625	-220.2987213134766	1451.834350585938	474.6163635253906	-288.3298034667969	1387.392700195312	461.7813720703125	-332.7043762207031	1108.4970703125	432.2789916992188	-244.2949981689453	1100.84716796875	396.8875427246094	-287.9884338378906	897.064697265625	571.5564575195312	-353.7579345703125	881.3306274414062	518.7294311523438	-345.2061157226562	1040.3193359375	458.7971496582031	-281.6093444824219	702.7755737304688	589.6550903320312	-300.9205932617188	776.4391479492188	611.2362060546875	-352.1710205078125	774.5718994140625	559.77001953125	-100.438102722168	1652.881958007812	449.3622741699219	14.98352527618408	1686.719482421875	642.4130249023438	-84.10053253173828	1683.270629882812	652.98876953125	36.32040786743164	1660.73046875	480.9830627441406	132.5790252685547	967.7296142578125	415.3128662109375	-225.5791473388672	974.1747436523438	485.0981750488281	-172.2575073242188	1024.329711914062	569.6188354492188	104.7620086669922	1011.203552246094	521.7384033203125	70.67030334472656	488.1004028320312	411.1031494140625	106.4174880981445	629.8265991210938	422.310791015625	-3.98572301864624	40.6600227355957	228.3819885253906	43.31324005126953	277.4170227050781	312.9261474609375	-2.096861362457275	38.71430206298828	450.3816223144531	-60.4477653503418	38.44295120239258	394.7743530273438	47.56190490722656	32.28223037719727	344.818359375	-69.10102081298828	57.12220764160156	182.2399139404297	-149.4552459716797	520.8484497070312	665.7278442382812	-212.0976867675781	773.0424194335938	594.7543334960938	-103.2200393676758	33.58993530273438	665.5958251953125	-123.8225555419922	403.0145263671875	696.0325927734375	-46.05540466308594	50.41427993774414	872.59033203125	-6.108695507049561	43.61392974853516	813.2322387695312	-119.4333267211914	39.02954864501953	776.9996948242188	-48.2954216003418	30.30559539794922	600.6557006835938	
